/* XPM */
static char * ecb_class_public_unknown_xpm[] = {
"16 14 35 1",
" 	c None",
".	c #060606",
"+	c #F2F1C5",
"@	c #E0B84B",
"#	c #DCB857",
"$	c #F2DDA4",
"%	c #E0B74A",
"&	c #D7B34F",
"*	c #ECC864",
"=	c #F2CB61",
"-	c #E8C25C",
";	c #4F2721",
">	c #4B5F87",
",	c #4F648E",
"'	c #E5A684",
")	c #D48E67",
"!	c #D67A44",
"~	c #C2CBDF",
"{	c #8AAAEA",
"]	c #83A1DE",
"^	c #87A7E8",
"/	c #E2B7A1",
"(	c #D08254",
"_	c #DF966D",
":	c #B2C5EB",
"<	c #6B8CD1",
"[	c #7798DF",
"}	c #7190D4",
"|	c #D67942",
"1	c #DEAC90",
"2	c #532923",
"3	c #A9BBDF",
"4	c #83A3E6",
"5	c #809EDC",
"6	c #EEC1AA",
"                ",
"   .            ",
"  .+.           ",
" .+@#.          ",
".$%&*=.         ",
" .=-=.          ",
"  .=.  ..;      ",
">,>.>,.')!;     ",
",~{]^.'/!(_;    ",
">:<[}.)|)'12    ",
",345^.|('16;    ",
">:5^5,._16;     ",
",>,>,> ;2;      ",
"                "};
