/* XPM */
static char * ecb_function_private_static_xpm[] = {
"16 14 52 1",
" 	c None",
".	c #BA0000",
"+	c #474747",
"@	c #434343",
"#	c #626C7D",
"$	c #FF9090",
"%	c #FFFFFF",
"&	c #F2F2F2",
"*	c #F6E8C6",
"=	c #C27F58",
"-	c #4F2721",
";	c #1B0D0B",
">	c #E0CFB0",
",	c #B16238",
"'	c #060606",
")	c #E5A684",
"!	c #915532",
"~	c #F7E4C2",
"{	c #C36D3D",
"]	c #532923",
"^	c #FF2424",
"/	c #E7CBBC",
"(	c #C07B57",
"_	c #EAD6B7",
":	c #CE7644",
"<	c #D48E67",
"[	c #E2B7A1",
"}	c #CA713E",
"|	c #B67553",
"1	c #F7E2C6",
"2	c #C37344",
"3	c #DF966D",
"4	c #CB733F",
"5	c #995A35",
"6	c #EAD7C1",
"7	c #D07C4D",
"8	c #DEAC90",
"9	c #DB8958",
"0	c #F8E5D1",
"a	c #C6794E",
"b	c #EEC1AA",
"c	c #EBDACB",
"d	c #D18255",
"e	c #4A2A26",
"f	c #ECDBCF",
"g	c #A85D35",
"h	c #887371",
"i	c #EDE0D8",
"j	c #D58F67",
"k	c #73605E",
"l	c #796563",
"m	c #90807F",
"                ",
"          ...   ",
"   +@#   .$%$.& ",
"   @*=%  .%  .% ",
"  -;>,&  .....& ",
" ')!~{]& ..^..% ",
"')/(_:<]&.^%^.& ",
"'[}|12)-%..^..% ",
"'345678]&.....& ",
"'49!0ab-%&%&%&% ",
" '<5cd-%        ",
"  ]efg%         ",
"  &hij&         ",
"   klm%         "};
