/* XPM */
static char * ecb_variable_public_xpm[] = {
"16 14 38 1",
" 	c None",
".	c #005D00",
"+	c #3CBA00",
"@	c #FFFFFF",
"#	c #F2F2F2",
"$	c #060606",
"%	c #6F8FD3",
"&	c #C2CBDF",
"*	c #8AAAEA",
"=	c #83A1DE",
"-	c #B2C5EB",
";	c #6080C9",
">	c #688AD5",
",	c #6687CD",
"'	c #7193DC",
")	c #7190D4",
"!	c #4F648E",
"~	c #A9BBDF",
"{	c #6789D6",
"]	c #6686CD",
"^	c #7091DA",
"/	c #7B9CE2",
"(	c #4B5F87",
"_	c #6685CD",
":	c #6F91DA",
"<	c #6F8ED2",
"[	c #7A9CE1",
"}	c #7998D8",
"|	c #6E8FD9",
"1	c #6D8DD2",
"2	c #799AE0",
"3	c #7897D7",
"4	c #83A4E6",
"5	c #6D8CD1",
"6	c #7899DF",
"7	c #7896D7",
"8	c #83A3E6",
"9	c #809EDC",
"                ",
"        ...     ",
"       .+@+.#   ",
"       .@  .@   ",
"$$$$$$$% .....# ",
"$&*=*=*%@..+..@ ",
"$-;>,')!#.+@+.# ",
"$~{]^%/(@..+..@ ",
"$-_:<[}!#.....# ",
"$~|1234(@#@#@#@ ",
"$-56789!#       ",
"$=!(!(!(@       ",
" @#@#@#@#       ",
"                "};
