/* XPM */
static char * ecb_constructor_protected_xpm[] = {
"16 14 30 1",
" 	c None",
".	c #060606",
"+	c #FFFFFF",
"@	c #FEE99F",
"#	c #FEF0B7",
"$	c #FEDF8B",
"%	c #8E2E00",
"&	c #FDC760",
"*	c #FCBD4F",
"=	c #C04C00",
"-	c #FEFBE5",
";	c #FFE9AD",
">	c #6B4900",
",	c #000000",
"'	c #FDD378",
")	c #B84900",
"!	c #D5AE46",
"~	c #E0B74A",
"{	c #963400",
"]	c #D5AF47",
"^	c #E4BD54",
"/	c #D8B350",
"(	c #E8C25C",
"_	c #050505",
":	c #E3BD53",
"<	c #DCB857",
"[	c #E0BE5F",
"}	c #FFD666",
"|	c #ECC864",
"1	c #E4C267",
"                ",
"         .....  ",
"        .+@#@$%+",
"    .+  .@&.&*=-",
"   .;>+ ,$*&'&)+",
"  .;!~>+ ..*{)+ ",
" .;]^/(>+ .&)+  ",
"_;!:<([}>+.*=-  ",
" .}<|[}>+ .&'=+ ",
"  .}1}>+  .'=-  ",
"   .}>+    {-   ",
"    >+     -    ",
"    +           ",
"                "};
