/* XPM */ 
static char * ecbvariableunknown_xpm[] = {
"16 14 37 1",
" 	c None",
"!	c black",
"#	c #060606",
"$	c #C2CBDF",
"%	c #8AAAEA",
"&	c #83A1DE",
"'	c #6F8FD3",
"(	c white",
")	c #B2C5EB",
"*	c #6080C9",
"+	c #688AD5",
",	c #6687CD",
"-	c #7193DC",
".	c #7190D4",
"0	c #4F648E",
"1	c #F2F2F2",
"2	c #A9BBDF",
"3	c #6789D6",
"4	c #6686CD",
"5	c #7091DA",
"6	c #7B9CE2",
"7	c #4B5F87",
"8	c #6685CD",
"9	c #6F91DA",
":	c #6F8ED2",
";	c #7A9CE1",
"<	c #7998D8",
"=	c #6E8FD9",
">	c #6D8DD2",
"?	c #799AE0",
"@	c #7897D7",
"A	c #83A4E6",
"B	c #6D8CD1",
"C	c #7899DF",
"D	c #7896D7",
"E	c #83A3E6",
"F	c #809EDC",
"                ",
"                ",
"                ",
"                ",
"########        ",
"#$%&%&%'(       ",
"#)*+,-.01       ",
"#2345'67(       ",
"#)89:;<01       ",
"#2=>?@A7(       ",
"#)BCDEF01       ",
"#&070707(       ",
" (1(1(1(1       ",
"                "};