/* XPM */
static char * ecb_variable_public_static_xpm[] = {
"16 14 54 1",
" 	c None",
".	c #005D00",
"+	c #474747",
"@	c #434343",
"#	c #626C7D",
"$	c #3CBA00",
"%	c #FFFFFF",
"&	c #F2F2F2",
"*	c #6E7683",
"=	c #E7EBD8",
"-	c #8296BD",
";	c #060606",
">	c #2D3544",
",	c #CBCEBD",
"'	c #5C729A",
")	c #6F8FD3",
"!	c #C2CBDF",
"~	c #8AAAEA",
"{	c #57688C",
"]	c #E1E8DD",
"^	c #5C7099",
"/	c #B2C5EB",
"(	c #6080C9",
"_	c #50648B",
":	c #D3DAD4",
"<	c #6176A1",
"[	c #7190D4",
"}	c #4F648E",
"|	c #A9BBDF",
"1	c #6789D6",
"2	c #4D6085",
"3	c #DFE5E2",
"4	c #7B9CE2",
"5	c #4B5F87",
"6	c #6685CD",
"7	c #53668D",
"8	c #D4DADA",
"9	c #7998D8",
"0	c #6E8FD9",
"a	c #506287",
"b	c #DFE7E9",
"c	c #83A4E6",
"d	c #6D8CD1",
"e	c #56698F",
"f	c #D5DBE1",
"g	c #809EDC",
"h	c #83A1DE",
"i	c #44536D",
"j	c #DCE2E9",
"k	c #838B9A",
"l	c #DEE3E9",
"m	c #92A8D0",
"n	c #727E95",
"o	c #8690A1",
"                ",
"        ...     ",
"   +@# .$%$.&   ",
"   *=-%.%  .%   ",
";;;>,';) .....& ",
";!~{]^~)%..$..% ",
";/(_:<[}&.$%$.& ",
";|123^45%..$..% ",
";/678<9}&.....& ",
";|0ab^c5%&%&%&% ",
";/def<g}&       ",
";h}ij^}5%       ",
" %&klm&%&       ",
"   *no%         "};
