/* XPM */ 
static char * ecbopen_xpm[] = {
"16 18 12 1",
" 	c None",
"!	c black",
"#	c #004200",
"$	c #296329",
"%	c #316331",
"&	c #396B39",
"'	c #427342",
"(	c #4A734A",
")	c #4A7B4A",
"*	c #528452",
"+	c #5A845A",
",	c #A5A5C6",
"                ",
"                ",
"                ",
"                ",
"    ###         ",
"   ##$##        ",
"  ##$%&##       ",
" ##$%&&'##      ",
"##$%&&'()##     ",
"#$%&&'()*+#     ",
"##&&'()*+##     ",
" ##'()*+##      ",
"  ##)*+##       ",
"   ##+##        ",
"    ###         ",
"     ,          ",
"     ,          ",
"     ,          "};