/* XPM */ 
static char * ecbfunctionunknownstatic_xpm[] = {
"16 14 18 1",
" 	c None",
"!	c black",
"#	c #060606",
"$	c #E5A684",
"%	c #E2B7A1",
"&	c #DF966D",
"'	c #CB7441",
"(	c #532923",
")	c #F2F2F2",
"*	c #CA713E",
"+	c #DB8958",
",	c #D48E67",
"-	c #4F2721",
".	c white",
"0	c #CB733F",
"1	c #DB8757",
"2	c #DEAC90",
"3	c #EEC1AA",
"                ",
"                ",
"                ",
"                ",
"  ####          ",
" #$%&'()        ",
"#$%*'+,()       ",
"#%*'+,$-.       ",
"#&01,$2()       ",
"#0+,$23-.       ",
" #,$23-.        ",
"  (-(-.         ",
"  ).).          ",
"                "};