/* XPM */
static char * VariableStaticPublic_xpm[] = {
"16 14 53 1",
" 	c None",
".	c #474747",
"+	c #434343",
"@	c #626C7D",
"#	c #6E7683",
"$	c #E7EBD8",
"%	c #8296BD",
"&	c #FFFFFF",
"*	c #000000",
"=	c #2D3544",
"-	c #CBCEBD",
";	c #5C729A",
">	c #C2CBDF",
",	c #8AAAEA",
"'	c #57688C",
")	c #E1E8DD",
"!	c #5C7099",
"~	c #6F8FD3",
"{	c #B2C5EB",
"]	c #6080C9",
"^	c #50648B",
"/	c #D3DAD4",
"(	c #6176A1",
"_	c #7190D4",
":	c #4F648E",
"<	c #F2F2F2",
"[	c #A9BBDF",
"}	c #6789D6",
"|	c #4D6085",
"1	c #DFE5E2",
"2	c #7B9CE2",
"3	c #4B5F87",
"4	c #6685CD",
"5	c #53668D",
"6	c #D4DADA",
"7	c #7998D8",
"8	c #6E8FD9",
"9	c #506287",
"0	c #DFE7E9",
"a	c #83A4E6",
"b	c #6D8CD1",
"c	c #56698F",
"d	c #D5DBE1",
"e	c #809EDC",
"f	c #83A1DE",
"g	c #44536D",
"h	c #DCE2E9",
"i	c #838B9A",
"j	c #DEE3E9",
"k	c #92A8D0",
"l	c #727E95",
"m	c #8690A1",
"n	c #060606",
"                ",
"                ",
"   .+@          ",
"   #$%&         ",
"nnn=-;nn        ",
"n>,')!,~&       ",
"n{]^/(_:<       ",
"n[}|1!23&       ",
"n{456(7:<       ",
"n[890!a3&       ",
"n{bcd(e:<       ",
"nf:gh!:3&       ",
" &<ijk<&<       ",
"   #lm&         "};
