/* XPM */
static char * ecb_class_public_xpm[] = {
"16 14 37 1",
" 	c None",
".	c #005D00",
"+	c #060606",
"@	c #3CBA00",
"#	c #F2F1C5",
"$	c #E0B84B",
"%	c #DCB857",
"&	c #F2DDA4",
"*	c #E0B74A",
"=	c #D7B34F",
"-	c #ECC864",
";	c #F2CB61",
">	c #E8C25C",
",	c #4F2721",
"'	c #4B5F87",
")	c #4F648E",
"!	c #E5A684",
"~	c #D48E67",
"{	c #D67A44",
"]	c #C2CBDF",
"^	c #8AAAEA",
"/	c #83A1DE",
"(	c #87A7E8",
"_	c #E2B7A1",
":	c #D08254",
"<	c #DF966D",
"[	c #B2C5EB",
"}	c #6B8CD1",
"|	c #7798DF",
"1	c #7190D4",
"2	c #D67942",
"3	c #DEAC90",
"4	c #532923",
"5	c #A9BBDF",
"6	c #83A3E6",
"7	c #809EDC",
"8	c #EEC1AA",
"          ...   ",
"   +     .@ @.  ",
"  +#+    .   .  ",
" +#$%+     .....",
"+&*=-;+    ..@..",
" +;>;+     .@ @.",
"  +;+  ++, ..@..",
"')'+')+!~{,.....",
")]^/(+!_{:<,    ",
"'[}|1+~2~!34    ",
")567(+2:!38,    ",
"'[7(7)+<38,     ",
")')')' ,4,      ",
"                "};
