/* XPM */ 
static char * ecbhandle_xpm[] = {
"10 17 3 1",
" 	c None",
"!	c black",
"#	c #ADA5C6",
"          ",
"          ",
"          ",
"          ",
"          ",
"          ",
"          ",
"          ",
"##########",
"          ",
"          ",
"          ",
"          ",
"          ",
"          ",
"          ",
"          "};