/* XPM */
static char * close_xpm[] = {
"16 10 28 1",
" 	c None",
".	c #840000",
"+	c #850404",
"@	c #911F1F",
"#	c #8C1313",
"$	c #911E1E",
"%	c #9B3333",
"&	c #9C3636",
"*	c #8F1616",
"=	c #860404",
"-	c #922020",
";	c #9C3434",
">	c #9E3B3B",
",	c #A54545",
"'	c #AA4F4F",
")	c #952424",
"!	c #952727",
"~	c #9E3A3A",
"{	c #A44444",
"]	c #AD5555",
"^	c #952525",
"/	c #9C3131",
"(	c #AB5050",
"_	c #AA5050",
":	c #921E1E",
"<	c #880707",
"[	c #A13D3D",
"}	c #932020",
"                ",
"   ..           ",
"  +@#.          ",
" .$%&*.         ",
"=-;>,').        ",
"=!~{']^.        ",
" ./(_:.         ",
"  <[}.          ",
"   ..           ",
"                "};
