/* XPM */
static char * open_xpm[] = {
"16 10 31 1",
" 	c None",
".	c #004200",
"+	c #044504",
"@	c #1F591F",
"#	c #135013",
"$	c #1E591E",
"%	c #336633",
"&	c #366936",
"*	c #165216",
"=	c #205B20",
"-	c #346734",
";	c #3B6C3B",
">	c #457345",
",	c #4B7A4B",
"'	c #235C23",
")	c #275E27",
"!	c #3A6C3A",
"~	c #447244",
"{	c #4B794B",
"]	c #538253",
"^	c #255E25",
"/	c #316531",
"(	c #4C7A4C",
"_	c #4F7F4F",
":	c #1E581E",
"<	c #064706",
"[	c #3C6F3C",
"}	c #205920",
"|	c #24582B",
"1	c #0C490E",
"2	c #A5A5C6",
"                ",
"   ..           ",
"  +@#.          ",
" .$%&*.         ",
"+=-;>,'.        ",
"+)!~{]^.        ",
" ./(_:.         ",
"  <[}.          ",
"   |1           ",
"   2            "};
