/* XPM */ 
static char * ecbclasspublic_xpm[] = {
"17 14 40 1",
" 	c None",
"!	c black",
"#	c #005D00",
"$	c white",
"%	c #060606",
"&	c #3CBA00",
"'	c #F2F2F2",
"(	c #F2F1C5",
")	c #E0B84B",
"*	c #DCB857",
"+	c #F2DDA4",
",	c #E0B74A",
"-	c #D7B34F",
".	c #ECC864",
"0	c #F2CB61",
"1	c #E8C25C",
"2	c #4F2721",
"3	c #4B5F87",
"4	c #4F648E",
"5	c #E5A684",
"6	c #D48E67",
"7	c #D67A44",
"8	c #C2CBDF",
"9	c #8AAAEA",
":	c #83A1DE",
";	c #87A7E8",
"<	c #E2B7A1",
"=	c #D08254",
">	c #DF966D",
"?	c #B2C5EB",
"@	c #6B8CD1",
"A	c #7798DF",
"B	c #7190D4",
"C	c #D67942",
"D	c #DEAC90",
"E	c #532923",
"F	c #A9BBDF",
"G	c #83A3E6",
"H	c #809EDC",
"I	c #EEC1AA",
"          ###$   ",
"   %$    #&$&#'  ",
"  %(%'   #' '#$  ",
" %()*%$  $ ##### ",
"%+,-.0%'   ##&## ",
" %010%$    #&$&# ",
"  %0%' %%2'##&## ",
"%%3%34%5672##### ",
"%89:;%5<7=>2'$'$ ",
"%?@AB%6C65DE$    ",
"%FGH;%C=5DI2'    ",
"%?H;H4%>DI2$     ",
"%34343'2E2'      ",
" $'$'$ $'$       "};