/* XPM */ 
static char * ecbenumerationprotected_xpm[] = {
"16 14 17 1",
" 	c None",
"!	c black",
"#	c #060606",
"$	c #F2F2F2",
"%	c white",
"&	c #FEE99F",
"'	c #FEF0B7",
"(	c #FEDF8B",
")	c #8E2E00",
"*	c #246DFF",
"+	c #FDC760",
",	c #FCBD4F",
"-	c #C04C00",
".	c #FEFBE5",
"0	c #FDD378",
"1	c #B84900",
"2	c #963400",
"                ",
"         #####$ ",
"        #%&'&()%",
" *      #&+#+,-.",
"**      #(,+0+1%",
" * **   %##,21% ",
" *   *   %#+1%  ",
" *  * **  #,-.  ",
"   *    * #+0-% ",
"   *** *  #0-.  ",
"        *$ 2.   ",
"      **   .    ",
"                ",
"                "};