/* XPM */ 
static char * ecbclassprotected_xpm[] = {
"16 14 48 1",
" 	c None",
"!	c black",
"#	c #060606",
"$	c white",
"%	c #FEE99F",
"&	c #FEF0B7",
"'	c #FEDF8B",
"(	c #8E2E00",
")	c #F2F1C5",
"*	c #F2F2F2",
"+	c #FDC760",
",	c #FCBD4F",
"-	c #C04C00",
".	c #E0B84B",
"0	c #DCB857",
"1	c #FDD378",
"2	c #B84900",
"3	c #F2DDA4",
"4	c #E0B74A",
"5	c #D7B34F",
"6	c #ECC864",
"7	c #F2CB61",
"8	c #963400",
"9	c #E8C25C",
":	c #4F2721",
";	c #4B5F87",
"<	c #4F648E",
"=	c #E5A684",
">	c #D48E67",
"?	c #D67A44",
"@	c #C2CBDF",
"A	c #8AAAEA",
"B	c #83A1DE",
"C	c #87A7E8",
"D	c #E2B7A1",
"E	c #D08254",
"F	c #DF966D",
"G	c #B2C5EB",
"H	c #6B8CD1",
"I	c #7798DF",
"J	c #7190D4",
"K	c #D67942",
"L	c #DEAC90",
"M	c #532923",
"N	c #A9BBDF",
"O	c #83A3E6",
"P	c #809EDC",
"Q	c #EEC1AA",
"          ##### ",
"   #$    #$%&%'(",
"  #)#*   #%+#+,-",
" #).0#$  !',+1+2",
"#34567#*  ##,82*",
" #797#$    #+2$ ",
"  #7#* ##:*#,-* ",
"##;#;<#=>?:#+1-$",
"#@ABC#=D?EF#1-* ",
"#GHIJ#>K>=LM8$  ",
"#NOPC#KE=LQ:*   ",
"#GPCP<#FLQ:$    ",
"#;<;<;*:M:*     ",
" $*$*$ $*$      "};