/* XPM */ 
static char * ecbenumerationpublic_xpm[] = {
"16 14 7 1",
" 	c None",
"!	c black",
"#	c #005D00",
"$	c #F2F2F2",
"%	c #3CBA00",
"&	c white",
"'	c #246DFF",
"                ",
"        ###$    ",
"       #%&%#$   ",
" '     #& $#&   ",
"''     & #####$ ",
" ' ''    ##%##& ",
" '   '   #%&%#$ ",
" '  ' '' ##%##& ",
"   '    '#####$ ",
"   ''' ' $&$&$& ",
"        '$      ",
"      ''        ",
"                ",
"                "};