/* XPM */ 
static char * ecbenumerationprivate_xpm[] = {
"16 14 8 1",
" 	c None",
"!	c black",
"#	c #BA0000",
"$	c #F2F2F2",
"%	c #FF9090",
"&	c white",
"'	c #246DFF",
"(	c #FF2424",
"                ",
"          ###$  ",
"         #%&%#$ ",
" '       #& $#& ",
"''       #####$ ",
" ' ''    ##(##& ",
" '   '   #(&(#$ ",
" '  ' '' ##(##& ",
"   '    '#####$ ",
"   ''' ' $&$&$& ",
"        '$      ",
"      ''        ",
"                ",
"                "};