/* XPM */ 
static char * ecbclassunknown_xpm[] = {
"16 14 38 1",
" 	c None",
"!	c black",
"#	c #060606",
"$	c white",
"%	c #F2F1C5",
"&	c #F2F2F2",
"'	c #E0B84B",
"(	c #DCB857",
")	c #F2DDA4",
"*	c #E0B74A",
"+	c #D7B34F",
",	c #ECC864",
"-	c #F2CB61",
".	c #E8C25C",
"0	c #4F2721",
"1	c #4B5F87",
"2	c #4F648E",
"3	c #E5A684",
"4	c #D48E67",
"5	c #D67A44",
"6	c #C2CBDF",
"7	c #8AAAEA",
"8	c #83A1DE",
"9	c #87A7E8",
":	c #E2B7A1",
";	c #D08254",
"<	c #DF966D",
"=	c #B2C5EB",
">	c #6B8CD1",
"?	c #7798DF",
"@	c #7190D4",
"A	c #D67942",
"B	c #DEAC90",
"C	c #532923",
"D	c #A9BBDF",
"E	c #83A3E6",
"F	c #809EDC",
"G	c #EEC1AA",
"                ",
"    #$          ",
"   #%#&         ",
"  #%'(#$        ",
" #)*+,-#&       ",
"  #-.-#$        ",
"   #-#& ##0&    ",
" ##1#12#3450$   ",
" #6789#3:5;<0&  ",
" #=>?@#4A43BC$  ",
" #DEF9#A;3BG0&  ",
" #=F9F2#<BG0$   ",
" #12121&0C0&    ",
"  $&$&$ $&$     "};