/* XPM */ 
static char * ecbenumerationunknown_xpm[] = {
"16 14 3 1",
" 	c None",
"!	c black",
"#	c #246DFF",
"                ",
"                ",
"                ",
" #              ",
"##              ",
" # ##           ",
" #   #          ",
" #  # ##        ",
"   #    #       ",
"   ### #        ",
"        #       ",
"      ##        ",
"                ",
"                "};