/* XPM */ 
static char * ecbconstructorprivate_xpm[] = {
"16 14 23 1",
" 	c None",
"!	c black",
"#	c #BA0000",
"$	c #FF9090",
"%	c white",
"&	c #F2F2F2",
"'	c #060606",
"(	c #FFE9AD",
")	c #6B4900",
"*	c #D5AE46",
"+	c #E0B74A",
",	c #FF2424",
"-	c #D5AF47",
".	c #E4BD54",
"0	c #D8B350",
"1	c #E8C25C",
"2	c #050505",
"3	c #E3BD53",
"4	c #DCB857",
"5	c #E0BE5F",
"6	c #FFD666",
"7	c #ECC864",
"8	c #E4C267",
"                ",
"          ###   ",
"         #$%$#& ",
"    '&   #%%%#% ",
"   '()&  #####& ",
"  '(*+)& ##,##% ",
" '(-.01)&#,%,#& ",
"2(*34156)##,##% ",
" '64756)&#####& ",
"  '686)& &%&%&% ",
"   '6)&         ",
"    )&          ",
"    &           ",
"                "};