/* XPM */ 
static char * ecbclassprivate_xpm[] = {
"16 14 41 1",
" 	c None",
"!	c black",
"#	c #BA0000",
"$	c #060606",
"%	c white",
"&	c #FF9090",
"'	c #F2F1C5",
"(	c #F2F2F2",
")	c #E0B84B",
"*	c #DCB857",
"+	c #F2DDA4",
",	c #E0B74A",
"-	c #D7B34F",
".	c #ECC864",
"0	c #F2CB61",
"1	c #FF2424",
"2	c #E8C25C",
"3	c #4F2721",
"4	c #4B5F87",
"5	c #4F648E",
"6	c #E5A684",
"7	c #D48E67",
"8	c #D67A44",
"9	c #C2CBDF",
":	c #8AAAEA",
";	c #83A1DE",
"<	c #87A7E8",
"=	c #E2B7A1",
">	c #D08254",
"?	c #DF966D",
"@	c #B2C5EB",
"A	c #6B8CD1",
"B	c #7798DF",
"C	c #7190D4",
"D	c #D67942",
"E	c #DEAC90",
"F	c #532923",
"G	c #A9BBDF",
"H	c #83A3E6",
"I	c #809EDC",
"J	c #EEC1AA",
"            ### ",
"   $%      #&%&#",
"  $'$(     #%%%#",
" $')*$%    #####",
"$+,-.0$(   ##1##",
" $020$%    #1%1#",
"  $0$( $$3(##1##",
"$$4$45$6783#####",
"$9:;<$6=8>?3(%(%",
"$@ABC$7D76EF%   ",
"$GHI<$D>6EJ3(   ",
"$@I<I5$?EJ3%    ",
"$45454(3F3(     ",
" %(%(% %(%      "};