/* XPM */
static char * MethodsStaticPublic_xpm[] = {
"16 14 50 1",
" 	c None",
".      c #474747",
"+      c #434343",
"@      c #626C7D",
"#      c #F6E8C6",
"$      c #C27F58",
"%      c #FFFFFF",
"&      c #4F2721",
"*      c #1B0D0B",
"=      c #E0CFB0",
"-      c #B16238",
";      c #F2F2F2",
">      c #000000",
",      c #E5A684",
"'      c #915532",
")      c #F7E4C2",
"!      c #C36D3D",
"~      c #532923",
"{      c #E7CBBC",
"]      c #C07B57",
"^      c #EAD6B7",
"/      c #CE7644",
"(      c #D48E67",
"_      c #E2B7A1",
":      c #CA713E",
"<      c #B67553",
"[      c #F7E2C6",
"}      c #C37344",
"|      c #DF966D",
"1      c #CB733F",
"2      c #995A35",
"3      c #EAD7C1",
"4      c #D07C4D",
"5      c #DEAC90",
"6      c #DB8958",
"7      c #F8E5D1",
"8      c #C6794E",
"9      c #EEC1AA",
"0      c #EBDACB",
"a      c #D18255",
"b      c #4A2A26",
"c      c #ECDBCF",
"d      c #A85D35",
"e      c #887371",
"f      c #EDE0D8",
"g      c #D58F67",
"h      c #73605E",
"i      c #796563",
"j      c #90807F",
"k      c #060606",
"                ",
"                ",
"   .+@          ",
"   +#$%         ",
"  &*=-;         ",
" k,')!~;        ",
"k,{]^/(~;       ",
"k_:<[},&%       ",
"k|12345~;       ",
"k16'789&%       ",
" k(20a&%        ",
"  ~bcd%         ",
"  ;efg;         ",
"   hij%         "};
